name rise36.2859peak64.2979fall75.1499.mot
datacolumns 19
datarows 29
range 20.40325800000000 20.44992400000000
endheader
time	ground_force1_vx	ground_force1_vy	ground_force1_vz	ground_force1_px	ground_force1_py	ground_force1_pz	ground_force2_vx	ground_force2_vy	ground_force2_vz	ground_force2_px	ground_force2_py	ground_force2_pz	ground_torque1_x	ground_torque1_y	ground_torque1_z	ground_torque2_x	ground_torque2_y	ground_torque2_z	
20.40325800000000	-7.38090400000000	45.62809200000000	-13.97049800000000	0.34532200000000	0.00000000000000	0.07847700000000	-51.61922500000000	806.54621199999997	-57.75391800000000	0.19183500000000	0.00000000000000	-0.10966000000000	0.00000000000000	-10.97913800000000	0.00000000000000	0.00000000000000	-31.20203700000000	0.00000000000000	
20.40492600000000	-7.93010800000000	52.28066700000000	-15.38197500000000	0.35155700000000	0.00000000000000	0.07960900000000	-52.13445200000000	804.29955099999995	-57.35018700000000	0.19103500000000	0.00000000000000	-0.10958000000000	0.00000000000000	-12.20391100000000	0.00000000000000	0.00000000000000	-31.06218600000000	0.00000000000000	
20.40658600000000	-8.33754700000000	58.90005700000000	-16.62125900000000	0.35732500000000	0.00000000000000	0.08064800000000	-52.66023500000000	801.92358800000000	-56.92331200000000	0.19024300000000	0.00000000000000	-0.10949400000000	0.00000000000000	-13.30924800000000	0.00000000000000	0.00000000000000	-30.91999000000000	0.00000000000000	
20.40825100000000	-8.59135500000000	65.42134500000000	-17.66672900000000	0.36269000000000	0.00000000000000	0.08160900000000	-53.19656300000000	799.41609800000003	-56.47332200000000	0.18946100000000	0.00000000000000	-0.10940400000000	0.00000000000000	-14.27508800000000	0.00000000000000	0.00000000000000	-30.77556900000000	0.00000000000000	
20.40992000000000	-8.68679900000000	71.80388200000000	-18.50795400000000	0.36770300000000	0.00000000000000	0.08250100000000	-53.74335100000000	796.77483400000006	-56.00026200000000	0.18868800000000	0.00000000000000	-0.10930900000000	0.00000000000000	-15.09025900000000	0.00000000000000	0.00000000000000	-30.62902300000000	0.00000000000000	
20.41158900000000	-8.62565800000000	78.03088099999999	-19.14490500000000	0.37240700000000	0.00000000000000	0.08333200000000	-54.30043200000000	793.99752599999999	-55.50419800000000	0.18792500000000	0.00000000000000	-0.10920900000000	0.00000000000000	-15.75206900000000	0.00000000000000	0.00000000000000	-30.48043700000000	0.00000000000000	
20.41325600000000	-8.41517400000000	84.10711300000000	-19.58644600000000	0.37683700000000	0.00000000000000	0.08411100000000	-54.86755500000000	791.08188399999995	-54.98521300000000	0.18717200000000	0.00000000000000	-0.10910400000000	0.00000000000000	-16.26524700000000	0.00000000000000	0.00000000000000	-30.32987400000000	0.00000000000000	
20.41491800000000	-8.06674000000000	90.05522999999999	-19.84835100000000	0.38102400000000	0.00000000000000	0.08484300000000	-55.44438600000000	788.02560700000004	-54.44341000000000	0.18643000000000	0.00000000000000	-0.10899500000000	0.00000000000000	-16.64046500000000	0.00000000000000	0.00000000000000	-30.17738100000000	0.00000000000000	
20.41659000000000	-7.59448000000000	95.91124900000000	-19.95110900000000	0.38499300000000	0.00000000000000	0.08553300000000	-56.03049800000000	784.82638399999996	-53.87891600000000	0.18569900000000	0.00000000000000	-0.10888000000000	0.00000000000000	-16.89262100000000	0.00000000000000	0.00000000000000	-30.02298500000000	0.00000000000000	
20.41825600000000	-7.01385900000000	101.71972700000001	-19.91771700000000	0.38876600000000	0.00000000000000	0.08618600000000	-56.62537500000000	781.48190099999999	-53.29187700000000	0.18498000000000	0.00000000000000	-0.10876000000000	0.00000000000000	-17.03907000000000	0.00000000000000	0.00000000000000	-29.86669400000000	0.00000000000000	
20.41992200000000	-6.34042100000000	107.52907000000000	-19.77165900000000	0.39236000000000	0.00000000000000	0.08680500000000	-57.22840700000000	777.98984700000005	-52.68246600000000	0.18427200000000	0.00000000000000	-0.10863500000000	0.00000000000000	-17.09795400000000	0.00000000000000	0.00000000000000	-29.70849300000000	0.00000000000000	
20.42158600000000	-5.58874700000000	113.38731700000000	-19.53518400000000	0.39579200000000	0.00000000000000	0.08739400000000	-57.83888600000000	774.34791800000005	-52.05088100000000	0.18357600000000	0.00000000000000	-0.10850500000000	0.00000000000000	-17.08675900000000	0.00000000000000	0.00000000000000	-29.54835200000000	0.00000000000000	
20.42326000000000	-4.77167000000000	119.33866800000000	-19.22798700000000	0.39907500000000	0.00000000000000	0.08795600000000	-58.45601000000000	770.55382899999995	-51.39734700000000	0.18289300000000	0.00000000000000	-0.10837000000000	0.00000000000000	-17.02116100000000	0.00000000000000	0.00000000000000	-29.38621700000000	0.00000000000000	
20.42492400000000	-3.89975600000000	125.42087100000001	-18.86630500000000	0.40222100000000	0.00000000000000	0.08849200000000	-59.07887800000000	766.60531600000002	-50.72211600000000	0.18222200000000	0.00000000000000	-0.10822900000000	0.00000000000000	-16.91422000000000	0.00000000000000	0.00000000000000	-29.22201600000000	0.00000000000000	
20.42658900000000	-2.98106100000000	131.66353799999999	-18.46243400000000	0.40524100000000	0.00000000000000	0.08900400000000	-59.70648900000000	762.50014799999997	-50.02547100000000	0.18156400000000	0.00000000000000	-0.10808400000000	0.00000000000000	-16.77590200000000	0.00000000000000	0.00000000000000	-29.05565800000000	0.00000000000000	
20.42825500000000	-2.02111900000000	138.08732699999999	-18.02463200000000	0.40814200000000	0.00000000000000	0.08949600000000	-60.33774600000000	758.23613499999999	-49.30772700000000	0.18091900000000	0.00000000000000	-0.10793300000000	0.00000000000000	-16.61293100000000	0.00000000000000	0.00000000000000	-28.88703000000000	0.00000000000000	
20.42992700000000	-1.02312100000000	144.70391699999999	-17.55734200000000	0.41093300000000	0.00000000000000	0.08996800000000	-60.97145000000000	753.81113600000003	-48.56923100000000	0.18028800000000	0.00000000000000	-0.10777700000000	0.00000000000000	-16.42890700000000	0.00000000000000	0.00000000000000	-28.71600300000000	0.00000000000000	
20.43159300000000	0.01175200000000	151.51661999999999	-17.06164800000000	0.41362100000000	0.00000000000000	0.09042100000000	-61.60630900000000	749.22307599999999	-47.81036300000000	0.17967000000000	0.00000000000000	-0.10761600000000	0.00000000000000	-16.22464200000000	0.00000000000000	0.00000000000000	-28.54242900000000	0.00000000000000	
20.43325200000000	1.08390700000000	158.52146400000001	-16.53591900000000	0.41621100000000	0.00000000000000	0.09085700000000	-62.24093000000000	744.46994700000005	-47.03154000000000	0.17906700000000	0.00000000000000	-0.10745000000000	0.00000000000000	-15.99864700000000	0.00000000000000	0.00000000000000	-28.36614000000000	0.00000000000000	
20.43492000000000	2.19487600000000	165.70858899999999	-15.97651900000000	0.41870900000000	0.00000000000000	0.09127600000000	-62.87382900000000	739.54983100000004	-46.23321400000000	0.17847700000000	0.00000000000000	-0.10727900000000	0.00000000000000	-15.74770600000000	0.00000000000000	0.00000000000000	-28.18695300000000	0.00000000000000	
20.43658600000000	3.34683900000000	173.06378900000001	-15.37854800000000	0.42111900000000	0.00000000000000	0.09168100000000	-63.50342800000000	734.46090700000002	-45.41587500000000	0.17790100000000	0.00000000000000	-0.10710200000000	0.00000000000000	-15.46747800000000	0.00000000000000	0.00000000000000	-28.00466700000000	0.00000000000000	
20.43826000000000	4.54219100000000	180.57005799999999	-14.73654500000000	0.42344500000000	0.00000000000000	0.09207100000000	-64.12806200000000	729.20146799999998	-44.58004800000000	0.17734000000000	0.00000000000000	-0.10692100000000	0.00000000000000	-15.15307500000000	0.00000000000000	0.00000000000000	-27.81906700000000	0.00000000000000	
20.43992200000000	5.78316800000000	188.20902400000000	-14.04509500000000	0.42569100000000	0.00000000000000	0.09244700000000	-64.74597600000000	723.76993200000004	-43.72630100000000	0.17679300000000	0.00000000000000	-0.10673400000000	0.00000000000000	-14.79958800000000	0.00000000000000	0.00000000000000	-27.62992200000000	0.00000000000000	
20.44158800000000	7.07154000000000	195.96219400000001	-13.29933700000000	0.42785900000000	0.00000000000000	0.09281000000000	-65.35533800000000	718.16486299999997	-42.85523600000000	0.17626100000000	0.00000000000000	-0.10654200000000	0.00000000000000	-14.40251500000000	0.00000000000000	0.00000000000000	-27.43698800000000	0.00000000000000	
20.44325700000000	8.40840100000000	203.81194800000000	-12.49533700000000	0.42995200000000	0.00000000000000	0.09316100000000	-65.95423500000000	712.38497800000005	-41.96749700000000	0.17574400000000	0.00000000000000	-0.10634500000000	0.00000000000000	-13.95808600000000	0.00000000000000	0.00000000000000	-27.24000700000000	0.00000000000000	
20.44491800000000	9.79403100000000	211.74226600000000	-11.63032900000000	0.43197200000000	0.00000000000000	0.09349900000000	-66.54068300000000	706.42917100000000	-41.06376700000000	0.17524300000000	0.00000000000000	-0.10614200000000	0.00000000000000	-13.46349100000000	0.00000000000000	0.00000000000000	-27.03871200000000	0.00000000000000	
20.44659200000000	11.22784500000000	219.73918000000000	-10.70283200000000	0.43392300000000	0.00000000000000	0.09382600000000	-67.11262800000000	700.29651999999999	-40.14476500000000	0.17475600000000	0.00000000000000	-0.10593500000000	0.00000000000000	-12.91698900000000	0.00000000000000	0.00000000000000	-26.83282300000000	0.00000000000000	
20.44825400000000	12.70840300000000	227.79098099999999	-9.71266700000000	0.43580400000000	0.00000000000000	0.09414200000000	-67.66795800000000	693.98630600000001	-39.21125300000000	0.17428400000000	0.00000000000000	-0.10572200000000	0.00000000000000	-12.31793700000000	0.00000000000000	0.00000000000000	-26.62205300000000	0.00000000000000	
20.44992400000000	14.23348000000000	235.88820600000000	-8.66087300000000	0.43761800000000	0.00000000000000	0.09444700000000	-68.20450300000000	687.49802099999999	-38.26402700000000	0.17382800000000	0.00000000000000	-0.10550500000000	0.00000000000000	-11.66673300000000	0.00000000000000	0.00000000000000	-26.40610800000000	0.00000000000000	
